<svg xmlns="http://www.w3.org/2000/svg" xmlns:xlink="http://www.w3.org/1999/xlink" viewBox="0 0 900 600"><defs><style>.cls-1{font-size:9.75px;}.cls-1,.cls-8{font-family:ArialMT, Arial;}.cls-2{fill:url(#linear-gradient);}.cls-3{fill:url(#linear-gradient-2);}.cls-4{fill:url(#linear-gradient-3);}.cls-5{fill:url(#linear-gradient-4);}.cls-6{fill:url(#linear-gradient-5);}.cls-7{fill:#5fa6ff;}.cls-12,.cls-14,.cls-16,.cls-18,.cls-7{stroke:#666;}.cls-11,.cls-12,.cls-13,.cls-14,.cls-15,.cls-16,.cls-17,.cls-18,.cls-19,.cls-32,.cls-33,.cls-34,.cls-37,.cls-7{stroke-miterlimit:10;}.cls-8{font-size:8.94px;}.cls-9{letter-spacing:-0.06em;}.cls-10{letter-spacing:0em;}.cls-11,.cls-13,.cls-15,.cls-17,.cls-32{fill:none;}.cls-11{stroke:#ffb67f;}.cls-11,.cls-13,.cls-15,.cls-17,.cls-32,.cls-33,.cls-34,.cls-37{stroke-width:2px;}.cls-12{fill:#ffb67f;}.cls-13{stroke:#f5dfff;}.cls-14{fill:#f5dfff;}.cls-15{stroke:#ffe67f;}.cls-16{fill:#ffe67f;}.cls-17{stroke:#a3d6a3;}.cls-18{fill:#a3d6a3;}.cls-19{fill:#dff8ff;stroke:#4d4d4d;}.cls-20{letter-spacing:-0.06em;}.cls-21{fill:url(#linear-gradient-6);}.cls-22{fill:url(#linear-gradient-7);}.cls-23{opacity:0.2;font-size:19.51px;font-family:Arial-Black, Arial;}.cls-24{letter-spacing:-0.03em;}.cls-25{letter-spacing:0.06em;}.cls-26{letter-spacing:0.02em;}.cls-27{letter-spacing:-0.02em;}.cls-28{letter-spacing:0.05em;}.cls-29{letter-spacing:-0.02em;}.cls-30{fill:url(#linear-gradient-8);}.cls-31{fill:url(#linear-gradient-9);}.cls-32,.cls-33,.cls-34,.cls-37{stroke:#000;}.cls-33{fill:url(#radial-gradient);}.cls-34{fill:url(#radial-gradient-2);}.cls-35{letter-spacing:-0.11em;}.cls-36{letter-spacing:0em;}.cls-37{fill:url(#radial-gradient-3);}</style><linearGradient id="linear-gradient" x1="179.92" y1="436.16" x2="179.92" y2="11.24" gradientUnits="userSpaceOnUse"><stop offset="0" stop-color="#fcfcfc" stop-opacity="0"/><stop offset="1" stop-color="#e8e8e8"/></linearGradient><linearGradient id="linear-gradient-2" x1="254.71" y1="436.16" x2="254.71" y2="11.24" gradientUnits="userSpaceOnUse"><stop offset="0" stop-color="#fcfcfc" stop-opacity="0"/><stop offset="1" stop-color="#d1d1d1"/></linearGradient><linearGradient id="linear-gradient-3" x1="406.72" y1="436.16" x2="406.72" y2="11.24" gradientUnits="userSpaceOnUse"><stop offset="0" stop-color="#fcfcfc" stop-opacity="0"/><stop offset="1" stop-color="#c7c7c7"/></linearGradient><linearGradient id="linear-gradient-4" x1="558.32" y1="436.16" x2="558.32" y2="11.24" gradientUnits="userSpaceOnUse"><stop offset="0" stop-color="#fcfcfc" stop-opacity="0"/><stop offset="1" stop-color="#b8b8b8"/></linearGradient><linearGradient id="linear-gradient-5" x1="631.89" y1="436.16" x2="631.89" y2="11.24" gradientUnits="userSpaceOnUse"><stop offset="0" stop-color="#fcfcfc" stop-opacity="0"/><stop offset="1" stop-color="#a3a3a3"/></linearGradient><linearGradient id="linear-gradient-6" x1="149.84" y1="507" x2="826.61" y2="507" gradientUnits="userSpaceOnUse"><stop offset="0" stop-color="#f2f2f2"/><stop offset="1" stop-color="#949494"/></linearGradient><linearGradient id="linear-gradient-7" x1="149.84" y1="473.56" x2="826.61" y2="473.56" gradientUnits="userSpaceOnUse"><stop offset="0" stop-color="#f2f2f2"/><stop offset="1" stop-color="#474747"/></linearGradient><linearGradient id="linear-gradient-8" x1="516" y1="438.44" x2="628.99" y2="438.44" gradientTransform="matrix(-1, 0, 0, 1, 1369, 0)" gradientUnits="userSpaceOnUse"><stop offset="0" stop-color="#ffffe3"/><stop offset="0.15" stop-color="#fff5c9"/><stop offset="0.33" stop-color="#ffecb2"/><stop offset="0.52" stop-color="#ffe5a1"/><stop offset="0.73" stop-color="#ffe197"/><stop offset="1" stop-color="#ffe094"/></linearGradient><linearGradient id="linear-gradient-9" x1="104.32" y1="438.44" x2="217.31" y2="438.44" gradientTransform="matrix(1, 0, 0, 1, 0, 0)" xlink:href="#linear-gradient-8"/><radialGradient id="radial-gradient" cx="176.34" cy="553.66" r="25.4" gradientUnits="userSpaceOnUse"><stop offset="0" stop-color="#fff5e7" stop-opacity="0.45"/><stop offset="0.44" stop-color="#fff3e3" stop-opacity="0.45"/><stop offset="0.63" stop-color="#ffeed6" stop-opacity="0.44"/><stop offset="0.78" stop-color="#ffe4bf" stop-opacity="0.42"/><stop offset="0.89" stop-color="#ffd69f" stop-opacity="0.39"/><stop offset="0.99" stop-color="#ffc476" stop-opacity="0.35"/><stop offset="1" stop-color="#ffc373" stop-opacity="0.35"/></radialGradient><radialGradient id="radial-gradient-2" cx="700.25" cy="558.94" r="29.06" gradientUnits="userSpaceOnUse"><stop offset="0" stop-color="#fff5e7" stop-opacity="0.45"/><stop offset="0.39" stop-color="#fff0e3" stop-opacity="0.45"/><stop offset="0.56" stop-color="#ffe0d4" stop-opacity="0.44"/><stop offset="0.68" stop-color="#ffc5b9" stop-opacity="0.43"/><stop offset="0.78" stop-color="#ff9d94" stop-opacity="0.41"/><stop offset="0.87" stop-color="#ff6a64" stop-opacity="0.39"/><stop offset="0.95" stop-color="#ff2c29" stop-opacity="0.37"/><stop offset="1" stop-color="red" stop-opacity="0.35"/></radialGradient><radialGradient id="radial-gradient-3" cx="120.25" cy="559.35" r="25.4" gradientUnits="userSpaceOnUse"><stop offset="0" stop-color="#fff5e7" stop-opacity="0.45"/><stop offset="0.39" stop-color="#fbf4e2" stop-opacity="0.45"/><stop offset="0.56" stop-color="#edf0d2" stop-opacity="0.44"/><stop offset="0.69" stop-color="#d4e8b7" stop-opacity="0.43"/><stop offset="0.8" stop-color="#b1de8f" stop-opacity="0.41"/><stop offset="0.89" stop-color="#83d15c" stop-opacity="0.39"/><stop offset="0.97" stop-color="#4cc11e" stop-opacity="0.36"/><stop offset="1" stop-color="#32b900" stop-opacity="0.35"/></radialGradient></defs><title>Artboard 1</title><g id="Layer_3" data-name="Layer 3"><text class="cls-1" transform="translate(74.35 34.14)">Phase 0<tspan x="3.79" y="11.71">Shape</tspan></text></g><g id="Layer_4" data-name="Layer 4"><rect class="cls-2" x="146.59" y="11.26" width="66.66" height="426.77"/><text class="cls-1" transform="translate(163.51 34.14)">Phase I<tspan x="4.61" y="11.71">Deter</tspan></text></g><g id="Layer_5" data-name="Layer 5"><rect class="cls-3" x="221.38" y="11.26" width="66.66" height="426.77"/><text class="cls-1" transform="translate(237.76 34.14)">Phase II<tspan x="-13.55" y="11.71">Seize Initiative</tspan></text></g><g id="Layer_6" data-name="Layer 6"><rect class="cls-4" x="296.17" y="11.26" width="221.11" height="426.77"/><text class="cls-1" transform="translate(384.08 34.14)">Phase III<tspan x="-1.62" y="11.71">Dominate</tspan></text></g><g id="Layer_7" data-name="Layer 7"><rect class="cls-5" x="525.4" y="11.26" width="65.84" height="426.77"/><text class="cls-1" transform="translate(538.67 34.14)">Phase IV<tspan x="1.36" y="11.71">Stabilize</tspan></text></g><g id="Layer_8" data-name="Layer 8"><rect class="cls-6" x="598.56" y="11.26" width="66.66" height="426.77"/><text class="cls-1" transform="translate(611.96 34.14)">Phase V<tspan x="-7.32" y="11.71">Enable Civil</tspan><tspan x="-0.81" y="23.41">Authority</tspan></text></g><g id="Layer_2" data-name="Layer 2"><text class="cls-1" transform="translate(697.84 34.14)">Phase 0<tspan x="3.79" y="11.71">Shape</tspan></text></g><g id="Layer_13" data-name="Layer 13"><path class="cls-7" d="M419.41,417.71c-9.37,0-148.47-13.35-156.58-13.35s-40.23,22.29-40.23,22.29v3.73s32.22,11.07,40.33,11.07,147-9.92,156.37-9.92l317.86-5.69V423.4Z"/><text class="cls-8" transform="translate(253.59 427.54)">Deterring<tspan class="cls-9" x="36.78" y="0"> </tspan><tspan class="cls-10" x="38.77" y="0">Activities</tspan></text></g><g id="Layer_12" data-name="Layer 12"><line class="cls-11" x1="222.19" y1="372.19" x2="222.19" y2="427.46"/><path class="cls-12" d="M508.41,365.85c-56.78-1.06-114.8-19.16-155-26.62-12.73-2.35-42.4,16.36-46.2,26.62l-85.38,5.68v2.84l85.43,5c3.8,10.64,33.42,29,46.15,26.61,40.24-7.45,98.21-25.19,155-26.61l228-5v-2.84Z"/><text class="cls-8" transform="translate(347.29 371.44)">Seizing the<tspan x="-12.92" y="10.73">Initiative</tspan><tspan class="cls-9" x="19.89" y="10.73"> </tspan><tspan x="21.88" y="10.73">Activities</tspan></text></g><g id="Layer_11" data-name="Layer 11"><line class="cls-13" x1="148.22" y1="287.65" x2="148.22" y2="426.65"/><path class="cls-14" d="M555.5,279.52c-27-6.51-108.43-61-144-61s-102.58,48-147.52,61l-116.17,8.13v2.43L264,298.21c44.93,13,111.88,61,147.46,61s116.9-54.46,144-61L664,290.08v-2.43Z"/><text class="cls-8" transform="translate(392.73 283.65)">Dominating<tspan x="4.97" y="10.73">Activities</tspan></text></g><g id="Layer_10" data-name="Layer 10"><line class="cls-15" x1="144.97" y1="205.54" x2="144.97" y2="425.02"/><path class="cls-16" d="M662.86,200c-56.78-1.07-62-19.16-102.2-26.62-12.73-2.36-73.46,29.7-95,26.62L144.56,205.7v2.84l321.18,5c29.59,3.42,82.19,29,94.92,26.62,40.24-7.45,45.37-25.2,102.15-26.62l1.19-5V205.7Z"/><text class="cls-8" transform="translate(538.43 203.58)">Stabilizing<tspan x="2.74" y="10.73">Activities</tspan></text></g><g id="Layer_9" data-name="Layer 9"><line class="cls-17" x1="141.72" y1="126.69" x2="141.72" y2="429.09"/><path class="cls-18" d="M613.09,76.29c-35.57,0-30.23,35.49-75.16,45.11l-396.62,6v1.8l396.67,6c44.94,9.63,39.54,45.11,75.11,45.11S664,129.22,664,129.22v-1.8S648.67,76.29,613.09,76.29Z"/><text class="cls-8" transform="translate(582.94 121.89)">Enabling Civil<tspan x="-5.71" y="10.73">Authority</tspan><tspan class="cls-9" x="29.58" y="10.73"> </tspan><tspan x="31.57" y="10.73">Activity</tspan></text></g><g id="Layer_16" data-name="Layer 16"><path class="cls-19" d="M479.07,453.88c-117.86,0-218.63-6.5-259.44-17.88h-1.91v30.08H739.6V436h-1.1C697.7,447.38,596.92,453.88,479.07,453.88Z"/><text class="cls-8" transform="translate(238.15 459.24)">Shaping<tspan class="cls-20" x="32.82" y="0"> </tspan><tspan x="34.81" y="0">Activities</tspan></text></g><g id="Layer_19" data-name="Layer 19"><polygon class="cls-21" points="826.61 507.26 811.54 495.87 811.54 499.81 149.84 499.81 149.84 514.44 811.54 514.44 811.54 518.14 826.61 507.26"/><text class="cls-8" transform="translate(108.49 510.13)">Global Shaping</text></g><g id="Layer_18" data-name="Layer 18"><polygon class="cls-22" points="826.61 473.81 811.54 462.42 811.54 465.67 149.84 465.67 149.84 481.11 811.54 481.11 811.54 484.69 826.61 473.81"/><text class="cls-8" transform="translate(108.5 475.87)">Theater Shaping</text></g><g id="Layer_1" data-name="Layer 1"><text class="cls-23" transform="translate(75.74 358.02) rotate(-90)">L<tspan class="cls-24" x="13.01" y="0">ev</tspan><tspan x="36.93" y="0">el o</tspan><tspan class="cls-25" x="75.96" y="0">f</tspan><tspan x="84.69" y="0" xml:space="preserve"> Milita</tspan><tspan class="cls-25" x="150.77" y="0">r</tspan><tspan x="160.56" y="0">y E</tspan><tspan class="cls-26" x="193.08" y="0">f</tspan><tspan class="cls-27" x="201.15" y="0">f</tspan><tspan x="208.41" y="0">o</tspan><tspan class="cls-28" x="221.43" y="0">r</tspan><tspan x="231.06" y="0">t</tspan></text></g><g id="Layer_22" data-name="Layer 22"><text class="cls-23" transform="translate(413.07 552.31)">OPORD E<tspan class="cls-29" x="97.54" y="0">x</tspan><tspan x="110.22" y="0">ecution</tspan></text></g><g id="Layer_21" data-name="Layer 21"><polygon class="cls-30" points="740.01 446.97 755.87 431.01 853 429.9 853 446.97 740.01 446.97 740.01 446.97"/><text class="cls-8" transform="translate(757.18 442.58)">OPLAN XXXX Shaping</text></g><g id="Layer_20" data-name="Layer 20"><polygon class="cls-31" points="217.31 446.97 201.45 431.01 104.32 429.9 104.32 446.97 217.31 446.97 217.31 446.97"/><text class="cls-8" transform="translate(108.49 442.58)">OPLAN XXXX Shaping</text></g><g id="Layer_14" data-name="Layer 14"><line class="cls-32" x1="145.78" y1="430.54" x2="145.78" y2="525.01"/><path d="M138.26,430.92a7.52,7.52,0,1,1,7.52,7.52A7.52,7.52,0,0,1,138.26,430.92Z"/><circle class="cls-33" cx="176.34" cy="553.66" r="25.4"/><text class="cls-8" transform="translate(159.97 550.86)">OPORD<tspan x="-2.99" y="10.73">Activation</tspan></text><line class="cls-32" x1="145.88" y1="524.35" x2="158.8" y2="533.69"/></g><g id="Layer_15" data-name="Layer 15"><circle class="cls-34" cx="700.25" cy="558.94" r="29.06"/><text class="cls-8" transform="translate(683.58 556.89)">OPORD<tspan class="cls-35"><tspan x="-6.72" y="10.73">T</tspan><tspan class="cls-36" x="-2.25" y="10.73">ermination</tspan></tspan></text><line class="cls-32" x1="668.47" y1="454.12" x2="668.47" y2="528.26"/><path d="M661,454.49a7.52,7.52,0,1,1,7.52,7.52A7.52,7.52,0,0,1,661,454.49Z"/><line class="cls-32" x1="668.57" y1="527.6" x2="681.49" y2="536.94"/></g><g id="Layer_17" data-name="Layer 17"><line class="cls-32" x1="93.85" y1="527.6" x2="106.77" y2="536.94"/><line class="cls-32" x1="93.75" y1="454.12" x2="93.75" y2="528.26"/><path d="M86.23,454.49A7.52,7.52,0,1,1,93.75,462,7.52,7.52,0,0,1,86.23,454.49Z"/><circle class="cls-37" cx="120.25" cy="559.35" r="25.4"/><text class="cls-8" transform="translate(103.47 557.15)">OPLAN<tspan x="-2.49" y="10.73">Approval</tspan></text></g></svg>