<svg xmlns="http://www.w3.org/2000/svg" xmlns:xlink="http://www.w3.org/1999/xlink" viewBox="0 0 432 216.5"><defs><style>.cls-1{fill:#b0b0b0;}.cls-2{fill:#cfcfcf;}.cls-18,.cls-3{stroke:#333;}.cls-18,.cls-3,.cls-4,.cls-5{stroke-miterlimit:10;}.cls-3{fill:url(#linear-gradient);}.cls-4,.cls-5{fill:none;stroke:#424242;}.cls-5{stroke-dasharray:1.98 1.98;}.cls-6{font-size:12px;}.cls-12,.cls-17,.cls-18,.cls-6{fill:#4c4c4c;}.cls-12,.cls-17,.cls-6{font-family:Arial-Black, Arial;}.cls-10,.cls-11,.cls-7,.cls-8,.cls-9{font-size:7px;}.cls-15,.cls-8{letter-spacing:-0.03em;}.cls-9{letter-spacing:0.02em;}.cls-10{letter-spacing:-0.02em;}.cls-11{letter-spacing:0em;}.cls-12{font-size:6px;}.cls-13{letter-spacing:0.02em;}.cls-14{letter-spacing:-0.02em;}.cls-16{letter-spacing:-0.02em;}.cls-17{font-size:10px;}</style><linearGradient id="linear-gradient" x1="44.14" y1="105.17" x2="390.33" y2="105.17" gradientUnits="userSpaceOnUse"><stop offset="0" stop-color="#2ebf00"/><stop offset="0.5" stop-color="#ffdf15"/><stop offset="0.99" stop-color="#b80000"/></linearGradient></defs><title>Artboard 1</title><g id="Layer_2" data-name="Layer 2"><rect class="cls-1" x="192.5" y="15" width="45.5" height="174.5"/><rect class="cls-2" x="237.5" y="15" width="76.5" height="174.5"/><rect class="cls-2" x="116.5" y="15" width="76.5" height="174.5"/></g><g id="Layer_1" data-name="Layer 1"><path class="cls-3" d="M217.31,20.17h-.14c-39.25-.33-33.8,148-173,170H390.33C251.1,168.2,256.56,19.84,217.31,20.17Z"/></g><g id="Layer_5" data-name="Layer 5"><line class="cls-4" x1="117" y1="15" x2="117" y2="16"/><line class="cls-5" x1="117" y1="17.98" x2="117" y2="187.01"/><line class="cls-4" x1="117" y1="188" x2="117" y2="189"/><line class="cls-4" x1="192.67" y1="15" x2="192.67" y2="16"/><line class="cls-5" x1="192.67" y1="17.98" x2="192.67" y2="187.01"/><line class="cls-4" x1="192.67" y1="188" x2="192.67" y2="189"/><line class="cls-4" x1="238.33" y1="15" x2="238.33" y2="16"/><line class="cls-5" x1="238.33" y1="17.98" x2="238.33" y2="187.01"/><line class="cls-4" x1="238.33" y1="188" x2="238.33" y2="189"/><line class="cls-4" x1="314" y1="15" x2="314" y2="16"/><line class="cls-5" x1="314" y1="17.98" x2="314" y2="187.01"/><line class="cls-4" x1="314" y1="188" x2="314" y2="189"/></g><g id="Layer_4" data-name="Layer 4"><text class="cls-6" transform="translate(31.25 190.75) rotate(-90)">PERFORMANCE</text><text class="cls-6" transform="translate(51 210)">STRESS <tspan class="cls-7" x="56.67" y="0">(S</tspan><tspan class="cls-8" x="64.45" y="0">ev</tspan><tspan class="cls-7" x="73.03" y="0">erity &amp; Du</tspan><tspan class="cls-9" x="111.52" y="0">r</tspan><tspan class="cls-10" x="114.75" y="0">a</tspan><tspan class="cls-11" x="119.3" y="0">tion)</tspan></text><text class="cls-12" transform="translate(66.75 181.75) rotate(-90)">Bo<tspan class="cls-13" x="8.67" y="0">r</tspan><tspan x="11.43" y="0">edom/Inactivity</tspan></text><text class="cls-12" transform="translate(164.75 181.75) rotate(-90)">Inc<tspan class="cls-13" x="10.34" y="0">r</tspan><tspan x="13.1" y="0">eased Attention</tspan></text><text class="cls-12" transform="translate(275.25 181.75) rotate(-90)">St<tspan class="cls-13" x="7" y="0">r</tspan><tspan x="9.76" y="0">ong Anxiety</tspan></text><text class="cls-12" transform="translate(372.75 181.75) rotate(-90)">E<tspan class="cls-14" x="4.33" y="0">x</tspan><tspan x="8.23" y="0">cessi</tspan><tspan class="cls-15" x="25.56" y="0">v</tspan><tspan x="29.07" y="0">e St</tspan><tspan class="cls-13" x="42.07" y="0">r</tspan><tspan x="44.83" y="0">ess/Meltd</tspan><tspan class="cls-16" x="76.16" y="0">o</tspan><tspan x="80.05" y="0">wn</tspan></text><text class="cls-17" transform="translate(219.75 181.75) rotate(-90)">OPTIMAL PERFORMANCE</text></g><g id="Layer_3" data-name="Layer 3"><polygon class="cls-18" points="51.5 16.46 43.84 7.19 36.17 16.46 41.68 16.46 43.67 190.5 44.33 190.5 46.32 16.46 51.5 16.46"/><polygon class="cls-18" points="410.47 190.83 401.2 183.16 401.2 188.17 43.67 190.17 43.67 190.83 401.2 192.83 401.2 198.49 410.47 190.83"/></g></svg>